<svg width="35" height="46" viewBox="0 0 35 46" fill="none" xmlns="http://www.w3.org/2000/svg">
<path d="M30.4062 0.625C32.6914 0.625 34.625 2.55859 34.625 4.84375V41.4062C34.625 43.7793 32.6914 45.625 30.4062 45.625H21.9688V38.5938C21.9688 36.3086 20.0352 34.375 17.75 34.375C15.377 34.375 13.5312 36.3086 13.5312 38.5938V45.625H5.09375C2.7207 45.625 0.875 43.7793 0.875 41.4062V4.84375C0.875 2.55859 2.7207 0.625 5.09375 0.625H30.4062ZM6.5 24.5312C6.5 25.3223 7.11523 25.9375 7.90625 25.9375H10.7188C11.4219 25.9375 12.125 25.3223 12.125 24.5312V21.7188C12.125 21.0156 11.4219 20.3125 10.7188 20.3125H7.90625C7.11523 20.3125 6.5 21.0156 6.5 21.7188V24.5312ZM16.3438 20.3125C15.5527 20.3125 14.9375 21.0156 14.9375 21.7188V24.5312C14.9375 25.3223 15.5527 25.9375 16.3438 25.9375H19.1562C19.8594 25.9375 20.5625 25.3223 20.5625 24.5312V21.7188C20.5625 21.0156 19.8594 20.3125 19.1562 20.3125H16.3438ZM23.375 24.5312C23.375 25.3223 23.9902 25.9375 24.7812 25.9375H27.5938C28.2969 25.9375 29 25.3223 29 24.5312V21.7188C29 21.0156 28.2969 20.3125 27.5938 20.3125H24.7812C23.9902 20.3125 23.375 21.0156 23.375 21.7188V24.5312ZM7.90625 9.0625C7.11523 9.0625 6.5 9.76562 6.5 10.4688V13.2812C6.5 14.0723 7.11523 14.6875 7.90625 14.6875H10.7188C11.4219 14.6875 12.125 14.0723 12.125 13.2812V10.4688C12.125 9.76562 11.4219 9.0625 10.7188 9.0625H7.90625ZM14.9375 13.2812C14.9375 14.0723 15.5527 14.6875 16.3438 14.6875H19.1562C19.8594 14.6875 20.5625 14.0723 20.5625 13.2812V10.4688C20.5625 9.76562 19.8594 9.0625 19.1562 9.0625H16.3438C15.5527 9.0625 14.9375 9.76562 14.9375 10.4688V13.2812ZM24.7812 9.0625C23.9902 9.0625 23.375 9.76562 23.375 10.4688V13.2812C23.375 14.0723 23.9902 14.6875 24.7812 14.6875H27.5938C28.2969 14.6875 29 14.0723 29 13.2812V10.4688C29 9.76562 28.2969 9.0625 27.5938 9.0625H24.7812Z" fill="#253C78"/>
</svg>
