<svg width="44" height="46" viewBox="0 0 44 46" fill="none" xmlns="http://www.w3.org/2000/svg">
<path d="M42.7559 15.3027C43.1074 16.0938 42.8438 16.8848 42.2285 17.5L38.4492 20.9277C38.5371 21.6309 38.625 22.4219 38.625 23.125C38.625 23.916 38.5371 24.707 38.4492 25.4102L42.2285 28.8379C42.8438 29.4531 43.1074 30.2441 42.7559 31.0352C42.4043 32.0898 41.9648 33.0566 41.4375 34.0234L40.998 34.7266C40.3828 35.6934 39.7676 36.6602 39.0645 37.5391C38.5371 38.1543 37.6582 38.3301 36.8672 38.0664L32.0332 36.5723C30.8027 37.4512 29.4844 38.1543 28.166 38.7695L27.0234 43.7793C26.8477 44.5703 26.2324 45.1855 25.4414 45.3613C24.2109 45.5371 22.9805 45.625 21.6621 45.625C20.4316 45.625 19.2012 45.5371 17.9707 45.3613C17.1797 45.1855 16.5645 44.5703 16.3887 43.7793L15.2461 38.7695C13.9277 38.1543 12.6094 37.4512 11.3789 36.5723L6.54492 38.0664C5.75391 38.3301 4.875 38.1543 4.34766 37.5391C3.64453 36.6602 3.0293 35.6934 2.41406 34.7266L1.97461 34.0234C1.44727 33.0566 1.00781 32.0898 0.65625 31.0352C0.304688 30.2441 0.568359 29.4531 1.18359 28.8379L4.96289 25.4102C4.875 24.707 4.875 23.916 4.875 23.125C4.875 22.4219 4.875 21.6309 4.96289 20.9277L1.18359 17.5C0.568359 16.8848 0.304688 16.0938 0.65625 15.3027C1.00781 14.248 1.44727 13.2812 1.97461 12.3145L2.41406 11.6113C3.0293 10.6445 3.64453 9.67773 4.34766 8.79883C4.875 8.18359 5.75391 8.00781 6.54492 8.27148L11.3789 9.76562C12.6094 8.88672 13.9277 8.0957 15.2461 7.56836L16.3887 2.55859C16.5645 1.76758 17.1797 1.15234 17.9707 0.976562C19.2012 0.800781 20.4316 0.625 21.75 0.625C22.9805 0.625 24.2109 0.800781 25.4414 0.976562C26.2324 1.15234 26.8477 1.76758 27.0234 2.55859L28.166 7.56836C29.4844 8.0957 30.8027 8.88672 32.0332 9.76562L36.8672 8.27148C37.6582 8.00781 38.5371 8.18359 39.0645 8.79883C39.7676 9.67773 40.3828 10.6445 40.998 11.6113L41.4375 12.3145C41.9648 13.2812 42.4043 14.248 42.7559 15.3027ZM21.75 30.1562C25.6172 30.1562 28.7812 27.0801 28.7812 23.125C28.7812 19.2578 25.6172 16.0938 21.75 16.0938C17.7949 16.0938 14.7188 19.2578 14.7188 23.125C14.7188 27.0801 17.7949 30.1562 21.75 30.1562Z" fill="#253C78"/>
</svg>
