<svg width="52" height="46" viewBox="0 0 52 46" fill="none" xmlns="http://www.w3.org/2000/svg">
<path d="M51.4746 23.125C51.4746 24.707 50.1562 25.9375 48.6621 25.9375H45.8496L45.9375 40C45.9375 40.2637 45.9375 40.5273 45.9375 40.7031V42.1094C45.9375 44.1309 44.3555 45.625 42.4219 45.625H41.0156C40.8398 45.625 40.752 45.625 40.6641 45.625C40.5762 45.625 40.4004 45.625 40.3125 45.625H35.3906C33.3691 45.625 31.875 44.1309 31.875 42.1094V34.375C31.875 32.8809 30.5566 31.5625 29.0625 31.5625H23.4375C21.8555 31.5625 20.625 32.8809 20.625 34.375V42.1094C20.625 44.1309 19.043 45.625 17.1094 45.625H12.1875C12.0117 45.625 11.9238 45.625 11.748 45.625C11.6602 45.625 11.5723 45.625 11.4844 45.625H10.0781C8.05664 45.625 6.5625 44.1309 6.5625 42.1094V32.2656C6.5625 32.2656 6.5625 32.1777 6.5625 32.0898V25.9375H3.75C2.16797 25.9375 0.9375 24.707 0.9375 23.125C0.9375 22.334 1.20117 21.6309 1.81641 21.0156L24.3164 1.41602C24.9316 0.800781 25.6348 0.625 26.25 0.625C26.8652 0.625 27.5684 0.888672 28.0957 1.32812L50.5078 21.0156C51.2109 21.6309 51.5625 22.334 51.4746 23.125Z" fill="white"/>
</svg>
